<?xml version="1.0" encoding="UTF-8" standalone="no"?>
<!-- Created with Inkscape (http://www.inkscape.org/) -->

<svg
   xmlns:dc="http://purl.org/dc/elements/1.1/"
   xmlns:cc="http://creativecommons.org/ns#"
   xmlns:rdf="http://www.w3.org/1999/02/22-rdf-syntax-ns#"
   xmlns:svg="http://www.w3.org/2000/svg"
   xmlns="http://www.w3.org/2000/svg"
   xmlns:sodipodi="http://sodipodi.sourceforge.net/DTD/sodipodi-0.dtd"
   xmlns:inkscape="http://www.inkscape.org/namespaces/inkscape"
   width="31.241459mm"
   height="20.983946mm"
   viewBox="0 0 31.241459 20.983946"
   version="1.1"
   id="svg8"
   inkscape:version="0.92.2 5c3e80d, 2017-08-06"
   sodipodi:docname="pumpkinPie.svg">
  <title
     id="title1950">Pumpkin Pie Sticker</title>
  <defs
     id="defs2">
    <filter
       inkscape:collect="always"
       style="color-interpolation-filters:sRGB"
       id="filter1784"
       x="-0.087575845"
       width="1.1751517"
       y="-0.14084814"
       height="1.2816963">
      <feGaussianBlur
         inkscape:collect="always"
         stdDeviation="0.97008637"
         id="feGaussianBlur1786" />
    </filter>
  </defs>
  <sodipodi:namedview
     id="base"
     pagecolor="#d8d8d8"
     bordercolor="#666666"
     borderopacity="1.0"
     inkscape:pageopacity="0"
     inkscape:pageshadow="2"
     inkscape:zoom="0.20945112"
     inkscape:cx="56.636979"
     inkscape:cy="12.157135"
     inkscape:document-units="mm"
     inkscape:current-layer="layer4"
     showgrid="false"
     inkscape:snap-global="false"
     inkscape:window-width="1165"
     inkscape:window-height="878"
     inkscape:window-x="0"
     inkscape:window-y="0"
     inkscape:window-maximized="0"
     borderlayer="true"
     fit-margin-top="0"
     fit-margin-left="0"
     fit-margin-right="0"
     fit-margin-bottom="0" />
  <metadata
     id="metadata5">
    <rdf:RDF>
      <cc:Work
         rdf:about="">
        <dc:format>image/svg+xml</dc:format>
        <dc:type
           rdf:resource="http://purl.org/dc/dcmitype/StillImage" />
        <dc:title>Pumpkin Pie Sticker</dc:title>
        <cc:license
           rdf:resource="http://creativecommons.org/publicdomain/zero/1.0/" />
        <dc:date>25/11/18</dc:date>
        <dc:creator>
          <cc:Agent>
            <dc:title>Cyanide Cupcake</dc:title>
          </cc:Agent>
        </dc:creator>
        <dc:subject>
          <rdf:Bag>
            <rdf:li>pumpkin pie</rdf:li>
            <rdf:li>pie</rdf:li>
            <rdf:li>slice</rdf:li>
            <rdf:li>autumn</rdf:li>
            <rdf:li>fall</rdf:li>
            <rdf:li>Thanksgiving</rdf:li>
            <rdf:li>Christmas</rdf:li>
            <rdf:li>October</rdf:li>
            <rdf:li>November</rdf:li>
            <rdf:li>holiday</rdf:li>
            <rdf:li>food</rdf:li>
            <rdf:li>delicious</rdf:li>
          </rdf:Bag>
        </dc:subject>
      </cc:Work>
      <cc:License
         rdf:about="http://creativecommons.org/publicdomain/zero/1.0/">
        <cc:permits
           rdf:resource="http://creativecommons.org/ns#Reproduction" />
        <cc:permits
           rdf:resource="http://creativecommons.org/ns#Distribution" />
        <cc:permits
           rdf:resource="http://creativecommons.org/ns#DerivativeWorks" />
      </cc:License>
    </rdf:RDF>
  </metadata>
  <g
     inkscape:groupmode="layer"
     id="layer4"
     inkscape:label="shadow"
     style="display:inline"
     sodipodi:insensitive="true"
     transform="translate(1.1732386e-6,-2.7633978e-6)">
    <path
       transform="translate(-86.680813,-171.10043)"
       style="opacity:0.79000005;fill:#000000;fill-opacity:1;stroke:none;stroke-width:3.90535355;stroke-linecap:round;stroke-miterlimit:4;stroke-dasharray:none;stroke-opacity:1;filter:url(#filter1784)"
       d="m 102.0983,173.4064 c -0.35736,0.3664 -0.0729,0.80301 -0.75925,0.28599 -0.79464,0.30587 -1.24356,0.94704 -2.132618,0.67506 -0.60777,0.34436 -0.54765,1.48598 -1.29618,0.66352 -0.92959,-0.10644 -0.93518,1.63734 -1.97144,0.74662 -0.636759,0.27887 -0.651327,1.41521 -1.461932,0.54028 -1.022811,-0.23919 -0.758757,1.56501 -1.662081,0.63829 -1.174775,-0.0804 -1.049102,1.94492 -2.272174,1.03316 -1.128236,0.135 -1.915405,1.33794 -1.340843,2.38245 0.830002,2.88592 2.547957,4.6088 3.292378,7.52684 8.28349,0.28567 14.39011,1.02499 23.08871,1.8798 0.0382,-2.14277 -0.0327,-4.31469 -0.0443,-6.47391 -5.17916,-2.85875 -8.43336,-4.32467 -13.61883,-7.17196 0.0899,-0.74675 0.47675,-1.76696 0.52585,-2.56013 -0.11657,-0.0534 -0.23025,-0.11423 -0.34729,-0.16601 z"
       id="rect890-8-0-3-6"
       inkscape:connector-curvature="0"
       sodipodi:nodetypes="ccccccccccccccc" />
  </g>
  <g
     inkscape:groupmode="layer"
     id="layer3"
     inkscape:label="sticker"
     style="display:inline"
     sodipodi:insensitive="true"
     transform="translate(1.1732386e-6,-2.7633978e-6)">
    <path
       transform="translate(-86.680813,-171.10043)"
       style="opacity:1;fill:#ffffff;fill-opacity:1;stroke:none;stroke-width:3.90535355;stroke-linecap:round;stroke-miterlimit:4;stroke-dasharray:none;stroke-opacity:1"
       d="m 101.61925,173.01226 c -0.27019,-0.0522 -0.13748,0.57012 -0.82384,0.0531 -0.79464,0.30587 -1.243565,0.94704 -2.132623,0.67506 -0.607771,0.34436 -0.547648,1.48598 -1.296174,0.66352 -0.929594,-0.10644 -0.935178,1.63734 -1.971439,0.74662 -0.636763,0.27887 -0.651331,1.41521 -1.461936,0.54028 -1.022811,-0.23919 -0.758757,1.56501 -1.662081,0.63829 -1.174775,-0.0804 -1.049102,1.94492 -2.272174,1.03316 -1.128236,0.135 -1.915405,1.33794 -1.340843,2.38245 0.804721,2.79802 2.444126,4.50277 3.221697,7.26346 0.02443,0.0867 0.09173,0.24481 0.321903,0.26338 8.1541,0.6578 13.89407,1.21485 22.38078,1.50535 0.13359,0.005 0.4173,-0.0773 0.42879,-0.21173 0.17041,-1.99193 0.004,-3.43696 -0.0133,-5.45261 -10e-4,-0.14509 -0.12889,-0.3903 -0.25431,-0.46303 -5.11758,-2.96758 -7.62948,-4.05991 -12.81495,-6.9072 -0.10483,-0.40869 -0.38585,-1.1575 0.0378,-2.56409 0.037,-0.12286 -0.22131,-0.14168 -0.34729,-0.16601 z"
       id="rect890-8-0-3"
       inkscape:connector-curvature="0"
       sodipodi:nodetypes="cccccccccsssssscsac" />
  </g>
  <g
     inkscape:label="pie"
     inkscape:groupmode="layer"
     id="layer1"
     transform="translate(-86.680811,-171.10043)"
     sodipodi:insensitive="true">
    <path
       inkscape:connector-curvature="0"
       style="opacity:1;fill:#e6b976;fill-opacity:1;stroke:none;stroke-width:3.25294089;stroke-linecap:round;stroke-miterlimit:4;stroke-dasharray:none;stroke-opacity:1"
       d="m 101.10128,174.09722 c -0.0161,-0.005 0.0117,0.0166 -0.0336,0.0191 -0.27178,0.0152 -0.0421,0.31631 -0.36535,0.54829 -0.61294,-0.32413 -0.63753,-0.33129 -1.568897,0.42943 -0.26554,-0.0345 -0.83403,-0.60219 -1.38493,0.75758 -1.06979,-0.8871 -1.05632,0.20816 -1.53944,0.55345 -1.14803,-0.77601 -0.98503,0.45513 -1.35495,0.50333 -0.40517,-0.36173 -1.08268,-0.71197 -1.43092,0.49816 -0.74333,-0.7311 -1.34267,-0.0299 -1.70894,0.76946 -1.22999,-0.62296 -1.499,0.14191 -2.12029,0.71417 0,0 0.19097,1.07257 0.38913,1.57613 1.09501,2.78264 1.94427,4.00585 2.56935,6.22372 7.2482,0.71717 14.701647,0.99931 22.028157,1.53988 l 0.009,-0.73428 -21.673097,-1.85773 c 2.84686,-0.71845 6.17097,-1.13505 9.214487,-1.69479 l -0.85369,-7.84139 0.0357,-0.0139 0.0853,-1.8557 c -0.22034,-0.0999 -0.28047,-0.13029 -0.29662,-0.13487 z"
       id="rect890-8-0"
       sodipodi:nodetypes="ccccccccccscccccccccc" />
  </g>
  <g
     inkscape:groupmode="layer"
     id="layer2"
     inkscape:label="filling"
     transform="translate(-86.680811,-171.10043)"
     style="display:inline"
     sodipodi:insensitive="true">
    <path
       style="opacity:1;fill:#b7742c;fill-opacity:1;stroke:none;stroke-width:1.46040452;stroke-linecap:round;stroke-miterlimit:4;stroke-dasharray:none;stroke-opacity:1"
       d="m 90.808326,180.20483 23.720144,2.88439 0.0558,4.51969 -21.710374,-1.91388 z"
       id="rect872-3-5"
       inkscape:connector-curvature="0"
       sodipodi:nodetypes="ccccc" />
    <path
       style="opacity:1;fill:#dc8807;fill-opacity:1;stroke:none;stroke-width:0.76091188;stroke-linecap:round;stroke-miterlimit:4;stroke-dasharray:none;stroke-opacity:1"
       inkscape:transform-center-x="0.3922146"
       inkscape:transform-center-y="-0.025609481"
       d="m 101.20158,176.13776 -5.189227,2.0565 -5.18923,2.0565 23.787217,2.88192 z"
       id="path823-9-2"
       inkscape:connector-curvature="0"
       sodipodi:nodetypes="ccccc" />
  </g>
</svg>
